<svg xmlns="http://www.w3.org/2000/svg" version="1.1" xmlns:xlink="http://www.w3.org/1999/xlink" width="1500" height="1500" viewBox="0 0 1500 1500"><rect width="1500" height="1500" x="0" y="0" id="background" stroke="transparent" fill="#09122c"></rect><svg xml:space="preserve" width="1000" height="1000" data-version="2" data-id="lg_18oA0jX7JDgn7GnDD5" viewBox="0 0 429 571" x="250" y="250"><rect width="100%" height="100%" fill="transparent"></rect><path fill="#be3144" d="M209.992 6.732 69.32 45.932v9.184c0 9.912-29.736 27.776-56.448 37.52L4.024 95.94v213.864c0 70.952 35.448 137.368 102.48 191.968a425.6 425.6 0 0 0 101.976 61.376l5.992 2.352 5.992-2.352c2.072-.84 51.744-20.552 101.92-61.376 67.088-54.6 102.592-120.96 102.592-191.968V95.884l-8.904-3.136c-26.712-9.8-56.448-27.664-56.448-37.576v-9.24L214.472 5.5z"></path><path stroke="#09122c" stroke-width="2" d="m49.2.22-25.12 7v1.64c0 1.77-5.31 4.96-10.08 6.7l-1.58.59v38.19c0 12.67 6.33 24.53 18.3 34.28a76 76 0 0 0 18.21 10.96L50 100l1.07-.42c.37-.15 9.24-3.67 18.2-10.96 11.98-9.75 18.32-21.6 18.32-34.28v-38.2L86 15.58c-4.77-1.75-10.08-4.94-10.08-6.71V7.22L50 0z" paint-order="stroke" transform="matrix(5.2527 0 0 5.3374 -48.16 18.82)"></path><path fill="#09122c" d="M64.87 194.91q-4.75 0-8.1-2.03-3.36-2.04-5.13-5.85-1.78-3.82-1.78-9.1 0-5.18 1.73-8.95 1.73-3.77 5.1-5.81 3.36-2.05 8.24-2.05 3.54 0 6.38 1.35 2.85 1.35 4.51 3.95 1.67 2.6 1.65 6.35h-7.32q-.02-1.77-.78-2.85-.77-1.08-2.06-1.57-1.3-.48-2.92-.48-2.2 0-3.82 1.08-1.62 1.08-2.51 3.34-.89 2.26-.89 5.79 0 3.45.91 5.69.91 2.23 2.54 3.31 1.64 1.08 3.8 1.08 1.84 0 3.12-.5 1.29-.51 1.97-1.46.69-.96.69-2.33h7.33q.03 3.37-1.66 5.86-1.69 2.48-4.57 3.83-2.88 1.35-6.43 1.35m30.33.21q-4.1 0-7.45-1.98-3.35-1.98-5.33-5.83t-1.98-9.43q0-5.4 1.9-9.16 1.9-3.75 5.23-5.7 3.33-1.95 7.65-1.95 4.23 0 7.57 1.95t5.29 5.7q1.94 3.76 1.94 9.16 0 5.58-1.93 9.43-1.94 3.85-5.28 5.83-3.34 1.98-7.61 1.98m0-6.55q2.25 0 3.93-1.15 1.69-1.15 2.65-3.5.95-2.35.95-5.97 0-3.42-.94-5.72-.95-2.29-2.65-3.45-1.69-1.16-3.92-1.16-2.12 0-3.82 1.16-1.69 1.16-2.67 3.45-.98 2.3-.98 5.72 0 2.72.56 4.72.56 2.01 1.58 3.31 1.01 1.31 2.37 1.95 1.36.64 2.94.64m31.97 6.32q-3.87 0-6.74-1.54t-4.46-4.45q-1.58-2.92-1.58-7.01v-20.16h7.22v19.32q0 1.89.35 3.29.35 1.39 1.06 2.33.71.93 1.75 1.38 1.05.45 2.44.45 1.38 0 2.4-.45t1.71-1.37q.69-.92 1.03-2.33.35-1.41.35-3.3v-19.32h7.23v20.16q0 4.02-1.58 6.95-1.57 2.92-4.43 4.49-2.86 1.56-6.75 1.56m25.38-.45h-6.95v-32.71h9.13l9.43 19.44 2.5 6.84h.15l-.94-8.4v-17.88h6.95v32.71h-9.2L154.24 175l-2.37-6.23h-.22l.9 9.72zm39.85 0h-7.16v-23.53q0-1.35.5-1.96.49-.61 1.5-.77h-10.08v-6.45h23.27v6.45h-8.03zm38.02 0h-8.44l-7.04-12.58h-3.46l-1.51-.33.65-4.5v-.72h4.75q1.57 0 2.53-.54.96-.54 1.38-1.52.43-.98.43-2.31 0-1.64-.58-2.47-.59-.84-1.55-1.14-.95-.3-2.12-.3l-3.58-.03-1.57-2.54-.36-3.73h6.43q3.15 0 5.55 1.05 2.39 1.06 3.74 3.2t1.35 5.35q0 2.5-.94 4.67-.95 2.17-2.95 3.54-2 1.36-5.17 1.49l.9-.36q.87 0 1.62.16.74.16 1.37.58.63.43 1.12 1.22zm-18.52 0h-7.13v-32.71h7.13zm36.63-10.19h-7.08l-11.16-22.52h8.1l3.98 9.72 2.47 5.82h.27l2.5-5.8 3.98-9.74h8.1zm.05 10.19h-7.2v-14.51h7.2zm25.22.45q-3.76 0-6.76-1.18t-4.69-3.66q-1.69-2.47-1.55-6.32h6.97q.05 1.62.68 2.77t1.98 1.74q1.35.6 3.51.6 1.75 0 2.88-.36 1.12-.36 1.65-1.07.53-.71.53-1.74 0-1.15-.72-1.9-.72-.76-2.26-1.41-1.54-.65-3.97-1.49-3.02-1.08-5.28-2.43-2.26-1.35-3.5-3.3-1.24-1.96-1.24-4.82 0-4.45 3.1-6.78 3.09-2.33 8.4-2.33 3.62 0 6.05 1.14 2.43 1.13 3.73 3.38 1.29 2.25 1.52 5.58h-6.84q-.05-1.3-.56-2.2-.5-.9-1.47-1.38-.97-.47-2.41-.47-2.18 0-3.33.71-1.14.71-1.14 2.24 0 1.15.52 1.95.53.79 1.84 1.49 1.3.7 3.62 1.55 2.16.79 4.15 1.55 1.99.75 3.57 1.77 1.57 1.03 2.48 2.58.92 1.55.92 3.96.02 4.9-3.36 7.37-3.37 2.46-9.02 2.46m23.49-.45h-7.22v-32.71h7.22zm16.47 0h-4.93l-.02-6.52h3.67q3.44 0 5.62-1.02 2.19-1.01 3.23-3.24 1.05-2.22 1.05-5.87 0-3.6-1.01-5.7-1.02-2.11-3.2-3.01-2.18-.9-5.71-.9h-3.81v-6.45h4.91q5.2 0 8.81 1.82 3.61 1.82 5.5 5.38 1.89 3.55 1.89 8.77 0 5.27-1.96 9.01-1.96 3.75-5.55 5.74-3.58 1.99-8.49 1.99m-3.26 0h-7.16v-32.71h7.16zm43.78 0h-20.45v-32.71h20.05v6.45h-15.19l2.18-1.66v9.38l-2.18-1.42h13.68v6.44h-13.45l1.95-1.4v10.11l-2.18-1.69h15.59zm15.78.45q-3.76 0-6.77-1.18-3-1.18-4.69-3.66-1.68-2.47-1.55-6.32h6.98q.04 1.62.67 2.77t1.98 1.74q1.35.6 3.51.6 1.76 0 2.88-.36 1.13-.36 1.65-1.07.53-.71.53-1.74 0-1.15-.72-1.9-.72-.76-2.26-1.41-1.54-.65-3.97-1.49-3.01-1.08-5.28-2.43-2.26-1.35-3.49-3.3-1.24-1.96-1.24-4.82 0-4.45 3.09-6.78 3.1-2.33 8.41-2.33 3.62 0 6.05 1.14 2.43 1.13 3.72 3.38 1.3 2.25 1.52 5.58h-6.84q-.04-1.3-.55-2.2-.51-.9-1.47-1.38-.97-.47-2.41-.47-2.18 0-3.33.71t-1.15 2.24q0 1.15.53 1.95.53.79 1.83 1.49 1.31.7 3.63 1.55 2.16.79 4.15 1.55 1.99.75 3.56 1.77 1.58 1.03 2.49 2.58.91 1.55.91 3.96.02 4.9-3.35 7.37-3.38 2.46-9.02 2.46M177.61 74.17q-1.66 0-2.83-.66-1.17-.66-1.79-1.91-.62-1.26-.62-3.04 0-1.84.66-3.1.66-1.27 1.86-1.92 1.2-.65 2.81-.65 1.56 0 2.62.59 1.07.59 1.62 1.74t.55 2.83q0 .21-.02.49-.01.27-.03.62h-7.02q.11 1.36.66 1.99.55.62 1.54.62.82 0 1.24-.36.43-.36.51-.95h2.98q-.09 1.13-.69 1.97-.59.83-1.62 1.29-1.03.45-2.43.45m-.92-6.76h2.81q-.04-1.05-.51-1.57-.46-.52-1.42-.52-1.13 0-1.65.81-.52.8-.53 2.28.08-.57.39-.78.31-.22.91-.22m11.47 6.78q-1.41 0-2.43-.41-1.01-.41-1.57-1.24-.56-.84-.62-2.13h3.03q.09.8.51 1.18.43.38 1.15.38.36 0 .69-.08.33-.09.54-.3.21-.22.21-.6 0-.31-.16-.5-.15-.2-.45-.33-.29-.14-.71-.25-.42-.12-.95-.28-.94-.28-1.76-.68-.81-.4-1.31-1.07t-.5-1.76q0-1.63 1.19-2.42 1.2-.79 3.14-.79 1.14 0 2.05.31.91.31 1.5 1.1.6.79.77 2.23l-3.01-.02q-.09-.64-.31-.95-.22-.32-.5-.42-.28-.11-.58-.11-.34 0-.62.11-.27.11-.43.32-.16.21-.16.53 0 .38.24.65t.73.48q.49.2 1.25.41.5.13 1.12.32.63.19 1.2.53.58.34.95.92.38.58.38 1.5 0 1.6-1.23 2.49-1.23.88-3.35.88m9.92-.04q-1.35 0-2.1-.68-.75-.69-.76-2.13l-.03-4.88q0-.38.21-.62.22-.24.61-.31l-.82-1.99v-.33l.57-3.23h2.53v10.4q0 .7.17.97.18.27.68.27t.83-.02q.34-.02.64-.07v2.45q-.36.13-1.08.15-.71.02-1.45.02m2.46-8.62h-6.51v-2.42h6.51zm3.15 8.64q-.72 0-1.23-.52-.51-.53-.51-1.36 0-.82.51-1.34.51-.52 1.23-.52t1.23.52q.51.52.51 1.34 0 .83-.51 1.36-.51.52-1.23.52m16.12-.15h-10.14q.66-.83 1.27-1.61.61-.78 1.18-1.52.58-.74 1.11-1.44l1.05-1.36q.95-1.24 1.53-2 .58-.77.85-1.33.27-.57.27-1.18 0-.71-.41-1.23-.4-.53-1.46-.52-.66 0-1.15.31-.49.31-.69.96-.2.64 0 1.64h-2.88q-.26-1.97.29-3.19.56-1.23 1.72-1.8 1.17-.57 2.74-.57 1.58 0 2.64.51t1.59 1.42q.53.9.53 2.09 0 1.15-.37 2.09-.37.93-.92 1.71-.54.77-1.06 1.47-.42.55-.84 1.11l-.84 1.1-.84 1.1q.33-.34.75-.44.42-.11 1.17-.11h2.91zm7.01.22q-1.6 0-2.82-.77-1.21-.78-1.89-2.45-.68-1.68-.68-4.36 0-2.6.68-4.25t1.89-2.43q1.22-.79 2.82-.79 1.61 0 2.81.79 1.21.78 1.88 2.43.68 1.65.68 4.25 0 2.68-.68 4.36-.67 1.67-1.88 2.45-1.2.77-2.81.77m0-2.87q.68 0 1.16-.43.49-.44.75-1.47t.26-2.79q0-1.73-.26-2.74-.26-1.01-.75-1.44-.48-.44-1.16-.44-.68 0-1.17.44-.49.43-.75 1.44t-.26 2.74q0 1.76.26 2.79t.75 1.47q.49.43 1.17.43m16.43 2.65h-10.14q.66-.83 1.27-1.61.61-.78 1.18-1.52.58-.74 1.11-1.44l1.05-1.36q.95-1.24 1.53-2 .58-.77.85-1.33.27-.57.27-1.18 0-.71-.41-1.23-.4-.53-1.46-.52-.66 0-1.15.31-.49.31-.69.96-.2.64 0 1.64h-2.88q-.26-1.97.29-3.19.56-1.23 1.72-1.8 1.17-.57 2.74-.57 1.58 0 2.64.51t1.59 1.42q.53.9.53 2.09 0 1.15-.37 2.09-.37.93-.92 1.71-.54.77-1.06 1.47-.42.55-.84 1.11l-.84 1.1-.84 1.1q.33-.34.75-.44.42-.11 1.17-.11h2.91z"></path><path fill="#09122c" d="M253.26 74.02h-2.83v-2.6h-7.2l5.12-11.94h4.94l-.05.04.01 9.36h1.86v2.54h-1.85zm-5.51-6.25-.68 1.52q.2-.23.43-.32.24-.09.63-.09h3.2q-.55 0-.73-.36-.17-.36-.17-.99v-2.82l.05-3.33-1.42 3.43zm31.486 336.251h-131.78c-15.227 0-17.772 18.917-17.772 42.287 0 23.37 2.545 42.287 17.771 42.287h131.78c15.227 0 17.772-18.938 17.772-42.287s-2.545-42.287-17.771-42.287m-125.503 39.594c-7.89-.021-8.377.785-7.571-2.29 1.018-3.818 2.142-10.031 3.18-11.325l-.042-.254c0-.658.552-1.21 1.23-1.21h2.44a1.23 1.23 0 0 1 0 2.44h-2.482c3.011 7.846 4.878 12.639 3.245 12.639m9.14-12.64h-4.941a1.23 1.23 0 0 1 0-2.438h4.941a1.23 1.23 0 0 1 0 2.439m9.904 0h-4.92a1.23 1.23 0 0 1 0-2.44h4.94a1.23 1.23 0 0 1 0 2.44m9.904 0h-4.94a1.23 1.23 0 0 1 0-2.44h4.94a1.23 1.23 0 0 1 0 2.44m9.925 0h-4.962a1.23 1.23 0 0 1 0-2.44h4.962a1.23 1.23 0 0 1 0 2.44m9.883 0h-4.963a1.23 1.23 0 0 1 0-2.44h4.963a1.23 1.23 0 0 1 0 2.44m9.925 0h-4.963a1.23 1.23 0 0 1 0-2.44h4.963a1.23 1.23 0 0 1 0 2.44m9.903 0h-4.962a1.23 1.23 0 0 1 0-2.44h4.962a1.23 1.23 0 0 1 0 2.44m9.904 0h-5.005a1.23 1.23 0 0 1 0-2.44h4.963a1.23 1.23 0 0 1 0 2.44m9.903 0h-4.962a1.23 1.23 0 0 1 0-2.44h4.962a1.23 1.23 0 0 1 0 2.44m9.904 0h-4.962a1.23 1.23 0 0 1 0-2.44h4.962a1.23 1.23 0 0 1 0 2.44m9.904 0h-4.963a1.23 1.23 0 0 1 0-2.44h4.963a1.23 1.23 0 0 1 0 2.44m9.903 0h-4.962a1.23 1.23 0 0 1 0-2.44h4.962a1.23 1.23 0 1 1 0 2.44m7.402 0h-2.46a1.23 1.23 0 0 1 0-2.44h2.46a1.23 1.23 0 0 1 0 2.44m-94.88-130.763c-.637-5.28-6.13.488-12.83.488-7.105 0-12.852-6.51-12.852.594v21.461a86.949 86.949 0 0 1 25.66-22.522m19.087-6.85-.17-1.166c1.124-7.253 5.217-12.64 10.116-12.64 4.898 0 8.991 5.387 10.115 12.64l-.17 1.167q3.733.636 7.338 1.76l-.127-1.464a17.178 17.178 0 0 0-34.313 0l-.127 1.485a59.38 59.38 0 0 1 7.338-1.781m64.957 29.753v-21.843c0-7.105-5.769-.615-12.873-.615-6.765 0-12.3-5.832-12.81-.297 9.417 5.26 18.07 13.021 25.683 22.755m-85.189 48.86h-7.338v-2.46h7.338zm-14.802-.148c-4.2-.339-5.578-1.696-5.663-5.577l2.46-.042c.043 2.332.17 2.905 3.393 3.18zm22.288-.042-.254-2.439c2.757-.297 2.969-.763 2.969-3.605h2.438c0 3.711-.763 5.577-5.153 6.044m2.693-12.173c0-2.926-.19-3.393-2.841-3.711l.275-2.439c4.242.488 5.026 2.418 5.026 6.023zm-28.184-.7-2.46-.063c.106-3.817 1.506-5.132 5.79-5.45l.212 2.438c-3.35.255-3.478.806-3.542 3.075m18.132-3.18h-7.359v-2.46h7.36zm1.464-13.382 1.908-1.548c.36.466 4.772.848 5.875.72l.254 2.44c-1.272.127-6.744-.022-8.059-1.612m15.354.7-.297-2.44 7.296-.911.318 2.417zm14.93-3.012-1.485-1.95c.573-.425.53-6.957.53-6.957l2.44-.297s.212 7.932-1.485 9.204m-32.32-5.365-.89-7.274 2.417-.297.934 7.295zm30.454-10.816s-.849-5.408-1.697-6.129l1.612-1.866c1.442 1.23 2.502 7.677 2.502 7.677zm-28.63-2.884-1.781-1.696c1.357-1.443 3.732-1.994 7.634-2.545l.319 2.438c-3.182.425-5.302.891-6.15 1.803m13.466-2.714-.318-2.44 7.316-.911.276 2.417zm-20.21 73.715-4.92-.064.042-2.46 4.878.064zm4.983-.085-.17-2.46c2.397-.148 2.418-.381 2.418-1.124l2.46.022c-.042 2.714-1.76 3.35-4.708 3.562m-14.802-.02-4.899-.065.021-2.46 4.899.064zm-9.84-.192c-2.863-.127-4.602-.382-5.535-1.4l1.781-1.675c.212.212 1.06.51 3.86.636zm-3.817-6.998-2.44-.064c.086-2.863 2.333-3.244 4.836-3.393l.17 2.439c-2.545.148-2.545.424-2.545 1.018m30.665-.191c-.127-.17-.785-.467-3.732-.615l.106-2.439c3.011.127 4.686.424 5.577 1.57zm-8.631-.721-4.878-.064.043-2.46 4.75.064zm-9.755-.127-4.9-.043v-2.46l4.92.064zm110.17 10.052.19-2.439c.383.021 2.291-1.442 2.291-1.442l2.418.297s-1.421 3.18-4.878 3.605m-4.92-.53-4.877-.573.275-2.438 4.878.572zm-10.349-2.333c-.466-.636-.127-5.726-.127-5.726l2.439.297-.382 3.605q.021.382.042.34zm18.068-4.771a14.845 14.845 0 0 0-3.986-.806l.275-2.44c3.118.361 4.56.637 5.43 1.485zm-8.864-1.379s-4.157-.488-4.814-.53l.17-2.439c.678.043 4.94.53 4.94.53zm.34-11.282.084-2.439c1.379.064 1.994-.34 2.036-1.145l2.46.127c-.127 2.27-4.241 3.478-4.58 3.478m-4.92-.233s-4.963-.255-5.112-2.948l2.44-.127c0 .254 2.82.636 2.82.636zm9.67-6.447-2.46-.021s-.552-1.273-1.909-1.357l.127-2.46c2.418.148 4.242 3.838 4.242 3.838m-12.088-1.272-2.44-.382c.34-2.184 5.387-2.439 5.387-2.439l-.127 2.46s-2.8.149-2.842.36m-12.681-8.61c-2.121 0-2.672-1.4-2.927-2.756l2.418-.425c.085.488.148.637.19.7l.319.022c.466 0 1.208-.107 1.908-.213l.212 2.418q-1.166.233-2.12.255m7.168-1.06-.425-2.418c1.4-.234 1.888-1.124 1.824-1.485l2.418-.382c.085.488-1.972 3.966-3.817 4.284m1.124-5.556s-1.04-2.29-1.188-2.27l-.212-2.438c.212-.021 3.817 4.305 3.817 4.305zm-9.459-.785-2.311-.763c.487-1.612 5.429-2.418 5.429-2.418l.403 2.418s-3.266.551-3.52.763m-7.211-10.221-.085-2.46 4.878-.213.127 2.44zm9.861-.488-.212-2.44c1.697-.148 2.12-1.314 2.12-1.314l2.44-.127s-1.973 3.669-4.348 3.88m-15.545-.445c-.678-.7-.954-5.577-.954-5.577l2.46-.064.276 3.966zm3.606-6.998-.212-2.46 4.94-.254.128 2.46zm13.572-.318a48.776 48.776 0 0 0-3.817-.17l-.127-2.438c.784-.043 4.94.106 5.725.933zm-26.212-7.783c-2.842-.254-3.393-7.295-3.393-7.295l2.439-.106s.297 4.877 1.188 4.962zm7.508-.212-.107-2.46s3.648-.212 3.648-1.57l-.148-3.286 2.46-.106.127 3.393c0 3.562-5.98 4.029-5.98 4.029m-6.15-10.71-.128-2.46 7.38-.318.043 2.44zm5.047 72.613-.127-2.46c1.59 0 2.141-.212 2.99-4.072l2.396.53c-.763 3.521-1.59 6.002-5.26 6.002m-7.634-1.315-7.189-1.569.53-2.375 7.19 1.548zm-14.633-4.877c-.36-.636.425-8.059.425-8.059l2.396.509s-.848 6.044-.7 6.32zm28.206-2.97-2.375-.53s1.336-6.362 1.357-6.998l2.439.085c-.022.806-1.421 7.423-1.421 7.423m-5.111-10.562-7.168-1.569.53-2.396 7.21 1.57zm-18.662-1.102-2.354-.7c.615-2.036 6.15-3.839 7.104-3.69l-.382 2.417c-.827-.127-3.817.106-4.368 1.973"></path><path fill="#09122c" d="M213.346 297.371c-40.485 0-74.119 47.101-81.075 109.217a17.814 17.814 0 0 1 15.184-7.487h131.78a17.814 17.814 0 0 1 15.206 7.487c-6.998-62.116-40.611-109.217-81.095-109.217m65 68.69-.255 4.984c-.191 3.605-.806 3.965-6.13 3.69l-7.697-.382c-5.323-.276-5.917-.721-5.726-4.305l.254-5.005c.191-3.605.827-3.966 6.15-3.69l7.698.403c5.302.254 5.896.7 5.726 4.305m-17.262-35.416.212 5.026c.17 3.584-.721 4.03-8.737 4.411l-11.6.53c-8.017.361-8.95 0-9.12-3.605l-.212-4.983c-.17-3.605.721-4.05 8.738-4.411l11.6-.53c8.016-.382 8.95 0 9.119 3.583m-32.595-22.055 8.228-.382c5.662-.254 6.34.213 6.532 4.645l.297 6.15c.212 4.453-.425 4.962-6.108 5.238l-8.207.382c-5.684.254-6.362-.212-6.574-4.666l-.276-6.15c-.212-4.432.424-4.962 6.108-5.217m-39.19 6.023 15.798-2.015c10.922-1.378 12.3-.53 13.403 8.186l1.548 12.173c1.103 8.737-.021 9.882-10.943 11.261l-15.799 2.015c-10.921 1.378-12.3.53-13.403-8.186l-1.527-12.173c-1.123-8.716 0-9.883 10.922-11.261m6.723 74.776c-.043 3.584-1.697 3.987-16.033 3.817l-20.761-.233c-14.336-.17-15.97-.594-15.927-4.2l.064-5.004c.02-3.605 1.675-3.987 16.011-3.817l20.783.233c14.315.17 15.948.594 15.905 4.199zm3.456-22.628c0 5.938-1.272 6.617-12.257 6.617h-15.927c-11.006 0-12.257-.679-12.257-6.617v-8.25c0-5.937 1.272-6.595 12.257-6.595h15.927c11.006 0 12.257.679 12.257 6.595zm45.108 4.135-2.163 9.968c-1.548 7.146-2.757 7.74-11.961 5.747l-13.297-2.884c-9.161-1.994-10.03-3.033-8.483-10.18l2.163-9.967c1.549-7.168 2.779-7.762 11.961-5.768l13.297 2.884c9.183 1.993 10.052 3.032 8.483 10.18m.975-15.63-.806-4.942c-.572-3.562-.042-4.05 5.217-4.92l7.614-1.23c5.238-.848 5.916-.551 6.489 2.99l.806 4.942c.572 3.541.042 4.05-5.217 4.899l-7.613 1.25c-5.26.85-5.938.552-6.49-2.99m40.527 31.641-.573 4.984c-.424 3.563-1.357 3.86-9.119 2.97l-11.218-1.316c-7.762-.912-8.59-1.42-8.165-5.005l.573-4.962c.424-3.563 1.357-3.88 9.119-2.969l11.218 1.315c7.762.912 8.589 1.42 8.165 4.983"></path><path fill="#be3144" stroke="#09122c" stroke-width="1.69" d="M87.17 106.043h255.09M89.989 242.316h255.088"></path><path fill="#09122c" d="m381.884 521.306-2.374.083c-1.76-50.475-44.261-90.11-94.726-88.35l-.083-2.373c51.783-1.807 95.377 38.867 97.183 90.64m-53.682 1.873-2.373.083c-.746-20.897-18.275-37.244-39.172-36.531l-.083-2.374c22.206-.747 40.826 16.618 41.628 38.822"></path><path fill="#09122c" d="m286.414 480.047-1.49-42.696c48.102-1.678 88.607 36.096 90.285 84.188l-42.705 1.49c-.875-24.59-21.5-43.824-46.09-42.982m-.785-22.496.083 2.373c35.698-1.213 65.637 26.707 66.914 62.403l2.373-.083c-1.333-37.001-32.366-65.942-69.37-64.693M146.06 426.297v2.702H13.224v-2.702zm0 60.626v2.692H13.224v-2.692zm-132.836-4.712v-48.5h132.822v48.5zm132.836-22.904v-2.691H13.238v2.69z"></path></svg></svg>